HIERARCHY
ROOT Hips
{
  OFFSET 90.7885 88.945 -76.2838
  CHANNELS 6 Xposition Yposition Zposition Zrotation Xrotation Yrotation
  JOINT LeftUpLeg
  {
    OFFSET 8.64259 1.95398 -2.38835
    CHANNELS 3 Zrotation Xrotation Yrotation
    JOINT LeftLeg
    {
      OFFSET 43.7702 0 0
      CHANNELS 3 Zrotation Xrotation Yrotation
      JOINT LeftFoot
      {
        OFFSET 40.6238 0 0
        CHANNELS 3 Zrotation Xrotation Yrotation
        JOINT LeftToeBase
        {
          OFFSET 12.7242 0 0
          CHANNELS 3 Zrotation Xrotation Yrotation
          End Site
          {
            OFFSET 0 0 0
          }
        }
      }
    }
  }
  JOINT RightUpLeg
  {
    OFFSET -8.2249 1.95398 -2.59336
    CHANNELS 3 Zrotation Xrotation Yrotation
    JOINT RightLeg
    {
      OFFSET 43.5653 0 0
      CHANNELS 3 Zrotation Xrotation Yrotation
      JOINT RightFoot
      {
        OFFSET 40.6238 0 0
        CHANNELS 3 Zrotation Xrotation Yrotation
        JOINT RightToeBase
        {
          OFFSET 12.7242 0 0
          CHANNELS 3 Zrotation Xrotation Yrotation
          End Site
          {
            OFFSET 0 0 0
          }
        }
      }
    }
  }
  JOINT Spine
  {
    OFFSET 0.165834 0.87714 6.61349
    CHANNELS 3 Zrotation Xrotation Yrotation
    JOINT Spine1
    {
      OFFSET 7.38963 1.71661e-005 0
      CHANNELS 3 Zrotation Xrotation Yrotation
      JOINT Spine2
      {
        OFFSET 11.9445 1.14441e-005 0
        CHANNELS 3 Zrotation Xrotation Yrotation
        JOINT Spine3
        {
          OFFSET 14.7254 4.19617e-005 0
          CHANNELS 3 Zrotation Xrotation Yrotation
          JOINT Spine4
          {
            OFFSET 10.9679 0 0
            CHANNELS 3 Zrotation Xrotation Yrotation
            JOINT RightShoulder
            {
              OFFSET 2.46616 -1.6653 3.69651
              CHANNELS 3 Zrotation Xrotation Yrotation
              JOINT RightArm
              {
                OFFSET 13.0012 0 0
                CHANNELS 3 Zrotation Xrotation Yrotation
                JOINT RightForeArm
                {
                  OFFSET 28.7848 1.52588e-005 0
                  CHANNELS 3 Zrotation Xrotation Yrotation
                  JOINT RightHand
                  {
                    OFFSET 26.5688 1.52588e-005 0
                    CHANNELS 3 Zrotation Xrotation Yrotation
                    End Site
                    {
                      OFFSET 0 0 0
                    }
                  }
                }
              }
            }
            JOINT LeftShoulder
            {
              OFFSET 2.38034 -1.29275 -3.7523
              CHANNELS 3 Zrotation Xrotation Yrotation
              JOINT LeftArm
              {
                OFFSET 16.3182 6.10352e-005 0
                CHANNELS 3 Zrotation Xrotation Yrotation
                JOINT LeftForeArm
                {
                  OFFSET 27.0901 0 0
                  CHANNELS 3 Zrotation Xrotation Yrotation
                  JOINT LeftHand
                  {
                    OFFSET 24.5451 1.52588e-005 0
                    CHANNELS 3 Zrotation Xrotation Yrotation
                    End Site
                    {
                      OFFSET 0 0 0
                    }
                  }
                }
              }
            }
            JOINT Neck
            {
              OFFSET 5.0226 -0.0266342 0
              CHANNELS 3 Zrotation Xrotation Yrotation
              JOINT Head
              {
                OFFSET 6.69363 2.86102e-005 0
                CHANNELS 3 Zrotation Xrotation Yrotation
                End Site
                {
                  OFFSET 0 0 0
                }
              }
            }
          }
        }
      }
    }
  }
}
MOTION
Frames:	9
Frame Time:	0.0416667
1.0355 92.0124 -27.0518 97.4067 -61.5134 99.6261 -175.156 21.8889 104.05 -52.3647 34.6679 7.72368 87.5602 11.2494 -6.88328 18.2529 -1.63744 3.67295 167.739 16.0907 64.7237 -29.2631 -24.9092 -9.84906 62.6384 -1.62417 -0.881847 16.467 0.936736 0.670566 -0.281772 7.90742 -90.7276 11.0517 -0.898113 -1.36148 -0.619564 -0.957162 -1.32065 -23.1498 -0.447478 -1.56841 -3.13716 -0.447471 -1.56841 92.8438 -28.8775 -101.422 47.0191 -2.66875 15.5896 5.68813 -12.8302 -10.6245 -21.7876 0.555054 -11.8398 -85.3826 -47.0593 85.2479 -8.31862 21.8427 -15.4036 7.61119 1.27318 -31.1094 -1.98974 -0.105334 -8.80251 -29.3477 -5.66356 -5.14671 -6.12103 -6.41749 -0.575557 
-8.456 89.1871 -20.275 97.7364 -61.0199 98.4496 -174.018 21.5266 110.953 -51.1541 38.2856 9.5203 88.4777 10.9325 -8.48893 26.6361 -4.64179 7.0468 167.838 19.8495 63.8221 -34.0808 -24.6849 -7.93294 59.7598 -0.653886 0.224372 23.0056 1.27047 -1.74948 -0.529352 7.98385 -90.6016 10.9004 -1.33206 -1.06994 -0.770218 -1.37787 -1.01027 -23.3052 -0.948941 -1.42078 -3.29253 -0.948957 -1.42079 93.8042 -28.6965 -99.4988 48.7326 -3.2728 17.7581 6.351 -14.9338 -9.22506 -20.9434 0.421578 -12.0617 -85.1111 -47.252 85.6976 -10.9126 18.6122 -10.7151 7.92232 1.45523 -29.1634 0.271884 -0.170906 -7.78948 -29.2112 -6.33439 -4.78924 -6.4074 -6.99432 -2.22673 
-20.1571 88.1624 -12.5337 104.957 -63.9629 104.028 -173.399 18.5326 117.233 -51.4583 44.3196 14.2042 69.8796 4.93232 -2.09894 45.7129 -5.14081 6.22032 167.894 20.9551 66.643 -45.3708 -24.6945 -5.34458 66.8487 -4.23251 1.30168 39.5955 0.788385 -5.52189 -0.437359 8.40141 -90.3949 10.0668 -1.05114 -0.697356 -1.60387 -1.0808 -0.650423 -24.1396 -0.792964 -0.981023 -4.12692 -0.792958 -0.98102 93.632 -27.8541 -100.101 50.2594 -4.35137 16.8639 7.35818 -14.8525 -7.652 -22.078 0.322484 -11.0734 -84.0962 -47.7809 87.346 -14.2119 13.7305 -1.35309 7.76531 -0.413184 -27.9637 -1.94707 -0.10367 -7.69871 -29.628 -4.69485 -1.50944 -6.22584 -4.91417 -3.08575 
-30.8668 90.0382 -6.62268 110.996 -67.2834 110.404 177.422 21.5889 116.27 -68.3612 43.4525 24.21 52.122 -2.16842 0.534831 17.4628 1.40666 0.636557 168.546 18.6389 73.9405 -48.4258 -22.2531 -3.37737 74.5975 -7.40741 2.88696 37.3466 -0.421696 -1.25526 -0.091128 8.76531 -90.4221 9.34133 -0.371247 -0.809133 -2.32979 -0.406504 -0.792021 -24.8631 -0.110923 -0.883294 -4.85043 -0.110921 -0.883299 92.0326 -27.4444 -103.569 47.183 -5.74747 14.0801 6.93617 -14.17 -9.52005 -24.3413 0.344098 -10.3802 -83.6137 -49.4536 88.2749 -17.2713 11.2524 6.43634 8.01284 -0.475918 -27.9142 -3.81383 -0.0416365 -8.25649 -31.0657 -3.25276 0.0828427 -5.69438 -3.24063 -3.39725 
-38.5947 92.5061 -2.62819 112.242 -71.3051 111.166 174.799 31.2038 108.655 -71.8576 30.8297 15.5351 61.6568 1.81283 2.31359 8.90718 3.92661 -1.1621 169.274 15.8797 79.0292 -44.1826 -22.2957 -2.30469 77.5055 -8.34622 2.77508 33.3813 -1.01766 1.48117 0.394867 8.81369 -90.4631 9.24804 0.5799 -0.959497 -2.42315 0.537122 -0.984098 -24.9575 0.841451 -0.740872 -4.94483 0.841459 -0.740866 92.3338 -26.369 -103.315 40.9355 -4.16135 9.63346 4.66971 -14.1093 -13.1506 -24.999 0.672185 -11.8421 -83.5034 -50.9484 88.5983 -21.6981 12.1324 10.1907 8.32147 1.82653 -25.2844 -2.66231 -0.0842499 -6.84995 -32.0593 -3.20694 0.700131 -5.19941 -3.11776 -3.65836 
-44.7169 94.7241 1.26662 110.731 -76.1582 109.236 -175.548 38.6693 96.02 -61.0044 20.5648 2.83577 65.8357 3.15425 -1.81517 14.2961 0.63699 1.50493 169.01 13.9876 82.4513 -38.6317 -25.3884 -0.580756 77.398 -8.20355 2.11221 28.9364 -1.27062 2.98762 0.829839 8.69717 -90.4918 9.48638 1.43321 -1.08167 -2.18424 1.38421 -1.1437 -24.7246 1.69201 -0.600852 -4.7119 1.69201 -0.600855 92.4693 -25.3766 -103.383 36.1081 -2.00908 5.19666 1.42228 -13.3898 -19.0872 -27.0444 1.26541 -13.8157 -82.7312 -49.8772 89.6565 -27.939 12.7638 14.2145 7.86509 2.58416 -23.9755 -4.75321 0.000583763 -8.88596 -32.365 -3.08374 1.10606 -4.14179 -2.96708 -3.20272 
-50.2251 95.3513 5.7561 110.119 -80.0586 109.865 -167.384 39.4785 85.2267 -50.0319 8.06214 -7.05306 66.8258 3.01576 -4.64092 19.9476 -3.54749 5.89516 169.431 11.5509 86.7821 -35.6139 -28.0395 1.40767 77.7951 -8.84441 0.283245 25.3964 -1.88012 4.80244 1.03887 8.56484 -90.784 9.7539 1.71612 -1.69189 -1.91714 1.64001 -1.76578 -24.4568 2.14521 -1.09787 -4.44417 2.14521 -1.09787 92.4328 -24.5976 -103.744 33.4311 -1.23538 2.32434 -2.39453 -16.4779 -27.8864 -27.7541 1.25121 -14.4244 -82.3887 -49.6505 90.1574 -31.6529 14.2973 18.0498 6.75572 2.07988 -23.202 -4.41347 -0.0275593 -7.82425 -32.7132 -2.96626 2.54091 -4.06792 -2.64195 -2.45717 
-55.4038 94.0897 10.981 125.062 -83.0203 126.992 -164.955 33.5547 80.4002 -40.1159 -5.97949 -14.0139 63.492 1.40085 -5.6157 20.4272 -4.89046 7.58061 170.436 8.22123 91.7753 -37.425 -27.9501 3.1964 82.1767 -11.052 -0.284484 19.2318 -2.82881 7.2954 1.17122 8.58196 -91.1653 9.72582 1.80763 -2.45378 -1.94631 1.69792 -2.53093 -24.4805 2.46142 -1.79724 -4.46788 2.46142 -1.79723 91.5623 -25.0439 -105.457 31.2102 -3.12386 0.517348 -5.54825 -18.4846 -34.0408 -27.0653 1.23312 -15.3832 -82.1801 -50.3843 90.5333 -31.3801 14.7381 18.9055 5.76695 1.88654 -20.2589 -3.44588 -0.0678961 -6.84303 -33.3406 -3.27381 4.37258 -4.12093 -2.65759 -2.06297 
-60.5741 91.9773 16.8316 136.451 -84.4439 139.877 -168.872 26.7391 77.9766 -29.279 -18.6937 -14.9326 59.1961 -0.301848 -6.21938 21.634 -5.09308 7.80266 171.681 4.64326 96.1979 -38.9545 -28.0579 4.60969 86.8798 -13.4687 -1.08644 15.6742 -3.34635 8.3948 1.28676 8.42919 -91.4069 10.0328 1.92432 -2.95161 -1.64023 1.79261 -3.03337 -24.1697 2.72222 -2.23718 -4.15704 2.72223 -2.23719 91.5646 -25.5195 -105.268 29.1786 -8.949 -0.600738 -5.35915 -17.817 -35.7243 -24.941 1.26997 -16.3944 -83.0088 -50.7888 89.3234 -28.7996 13.2911 17.7472 5.33439 0.679827 -17.4418 -2.11391 -0.0940258 -5.91874 -32.8398 -3.83135 5.41491 -5.16898 -3.07627 -2.1987 
